<svg xmlns="http://www.w3.org/2000/svg" viewBox="0 0 47.5 47.5" id="donut">
  <defs>
    <clipPath id="a">
      <path d="M0 38h38V0H0v38Z"></path>
    </clipPath>
  </defs>
  <g clip-path="url(#a)" transform="matrix(1.25 0 0 -1.25 0 47.5)">
    <path fill="#ffac33" d="M36.337 13.451C35.291 7.18 28.615 3 19.092 3S2.894 7.18 1.849 13.451c-.247 1.479.156 8.12 1.054 9.406 2.559 3.663 3.474-10.365 16.189-10.365 13.848 0 13.641 14.028 16.199 10.365.899-1.286 1.292-7.927 1.046-9.406"></path>
    <path fill="#8a4b38" d="M19.092 17.63c-3.174 0-5.748.702-5.748 1.568 0 .866 2.574 1.567 5.748 1.567 3.173 0 5.748-.701 5.748-1.567s-2.575-1.568-5.748-1.568m0 13.375c-9.331 0-16.895-4.584-16.895-10.24 0-5.655 7.564-10.239 16.895-10.239 9.33 0 16.895 4.584 16.895 10.239 0 5.656-7.565 10.24-16.895 10.24"></path>
    <path fill="#8a4b38" d="M2.72 22.377c-.653-1.045-.92-5.494.479-7.577 2.134-3.179 3.178-1.567 4.746-2.047 2.335-.714 2.508-2.559 4.355-3.483 2.09-1.045 3.305-.741 6.27 0 4.181 1.045 6.837-1.088 9.405 0 2.106.893 3.311 4.137 4.486 4.528 3.728 1.243 4.515 7.124 1.741 9.537-.87-1.829-5.137-8.404-7.88-8.709-2.745-.305-10.974-1-14.457.784-3.484 1.785-7.011 4.006-7.447 4.615-.435.61-1.698 2.352-1.698 2.352"></path>
    <path fill="#f4900c" d="M19.092 23.118c-3.752 0-6.793-1.228-6.793-2.743 0-.59.463-1.133 1.245-1.58-.126.13-.2.264-.2.404 0 .866 2.574 1.567 5.748 1.567 3.173 0 5.748-.701 5.748-1.567 0-.14-.074-.274-.201-.404.783.447 1.246.99 1.246 1.58 0 1.515-3.042 2.743-6.793 2.743"></path>
    <path fill="#f4abba" d="M5.42 18.85a1.044 1.044 0 0 0-.489 1.969l2.308 1.22a1.044 1.044 0 1 0 .976-1.847l-2.308-1.22a1.028 1.028 0 0 0-.487-.122M17.307 11.056c-.41 0-.799.242-.966.646l-.74 1.786a1.045 1.045 0 1 0 1.931.798l.74-1.786a1.044 1.044 0 0 0-.965-1.444"></path>
    <path fill="#55acee" d="M29.151 15.236a1.043 1.043 0 0 0-.898 1.576l1.131 1.916a1.044 1.044 0 1 0 1.799-1.063l-1.132-1.915a1.043 1.043 0 0 0-.9-.514"></path>
    <path fill="#f4abba" d="M30.893 23c-.56 0-1.023.481-1.043 1.046-.02.576.431 1.079 1.007 1.1l1.218.052c.587.007 1.061-.427 1.081-1.004.02-.576-.431-1.095-1.007-1.116L30.931 23h-.038ZM20.792 27.123a1.047 1.047 0 0 0-.315 2.042l.826.261a1.045 1.045 0 0 0 .631-1.993l-.827-.261a1.05 1.05 0 0 0-.315-.049"></path>
    <path fill="#88c9f9" d="M14.998 25.426c-.157 0-.316.036-.466.11l-.784.392a1.046 1.046 0 1 0 .935 1.87l.783-.392a1.045 1.045 0 0 0-.468-1.98M24.1 12.146a1.05 1.05 0 0 0-.465.109l-.784.391a1.045 1.045 0 1 0 .932 1.871l.784-.391a1.046 1.046 0 0 0-.467-1.98"></path>
    <path fill="#55acee" d="M10.426 14.452a1.045 1.045 0 0 0-.96 1.457l.392.914a1.044 1.044 0 1 0 1.921-.824l-.392-.914a1.046 1.046 0 0 0-.961-.633M26.018 24.337a1.045 1.045 0 0 0-.42 2.003l.696.305a1.043 1.043 0 0 0 1.376-.539 1.044 1.044 0 0 0-.538-1.376l-.696-.305a1.036 1.036 0 0 0-.418-.088M9.035 24.38c-.078 0-.157.009-.235.027l-.566.13a1.045 1.045 0 0 0 .468 2.037l.566-.13a1.046 1.046 0 0 0-.233-2.064"></path>
  </g>
</svg>
